<?xml version="1.0" encoding="UTF-8" standalone="no"?>
<!-- Created with Inkscape (http://www.inkscape.org/) -->

<svg
   xmlns:dc="http://purl.org/dc/elements/1.1/"
   xmlns:cc="http://creativecommons.org/ns#"
   xmlns:rdf="http://www.w3.org/1999/02/22-rdf-syntax-ns#"
   xmlns:svg="http://www.w3.org/2000/svg"
   xmlns="http://www.w3.org/2000/svg"
   xmlns:sodipodi="http://sodipodi.sourceforge.net/DTD/sodipodi-0.dtd"
   xmlns:inkscape="http://www.inkscape.org/namespaces/inkscape"
   width="200mm"
   height="200mm"
   viewBox="0 0 200 200"
   version="1.1"
   id="svg8"
   inkscape:version="0.92.3 (2405546, 2018-03-11)"
   sodipodi:docname="HatBotLogo.svg"
   inkscape:export-filename="C:\Users\Snaptraks\Desktop\HatBotLogo.png"
   inkscape:export-xdpi="65.139999"
   inkscape:export-ydpi="65.139999">
  <defs
     id="defs2" />
  <sodipodi:namedview
     id="base"
     pagecolor="#ffffff"
     bordercolor="#666666"
     borderopacity="1.0"
     inkscape:pageopacity="0.0"
     inkscape:pageshadow="2"
     inkscape:zoom="1"
     inkscape:cx="283.84636"
     inkscape:cy="399.39074"
     inkscape:document-units="mm"
     inkscape:current-layer="g3715"
     showgrid="false"
     fit-margin-left="10"
     fit-margin-top="10"
     fit-margin-bottom="10"
     fit-margin-right="10"
     inkscape:window-width="1920"
     inkscape:window-height="1017"
     inkscape:window-x="1912"
     inkscape:window-y="-8"
     inkscape:window-maximized="1"
     showguides="true"
     inkscape:guide-bbox="true" />
  <metadata
     id="metadata5">
    <rdf:RDF>
      <cc:Work
         rdf:about="">
        <dc:format>image/svg+xml</dc:format>
        <dc:type
           rdf:resource="http://purl.org/dc/dcmitype/StillImage" />
        <dc:title></dc:title>
      </cc:Work>
    </rdf:RDF>
  </metadata>
  <g
     inkscape:groupmode="layer"
     id="layer3"
     inkscape:label="Background"
     style="display:none">
    <rect
       style="fill:#95a5a6;fill-opacity:1;stroke:#000000;stroke-width:0.26458332;stroke-opacity:1"
       id="rect4606"
       width="280.633"
       height="231.98994"
       x="-40.411152"
       y="-13.28108" />
  </g>
  <g
     inkscape:groupmode="layer"
     id="layer5"
     inkscape:label="Background 2"
     sodipodi:insensitive="true">
    <path
       style="fill:#95a5a6;fill-opacity:1;stroke:#000000;stroke-width:0.26458332px;stroke-linecap:butt;stroke-linejoin:miter;stroke-opacity:1"
       d="m 43.656249,49.981249 c 0,2.469446 0,4.93889 0,7.408333 0,0.529167 0,1.058333 0,1.5875 0,0.264583 -0.118324,0.557099 0,0.79375 0.03944,0.07888 0.202221,-0.06236 0.264584,0 0.06236,0.06236 0,0.17639 0,0.264583 0,0.0882 0,0.17639 0,0.264584 0,0.440973 0,0.881946 0,1.322916 0,0.0882 0,0.17639 0,0.264584 0,0.0882 -0.03944,0.1857 0,0.264583 0.05578,0.111559 0.208804,0.153024 0.264583,0.264583 0.03421,0.06841 0,1.399964 0,1.5875 0,0.0882 -0.06236,0.202221 0,0.264584 0.06236,0.06236 0.202221,-0.06236 0.264583,0 0.06367,0.06367 -0.06367,0.994666 0,1.058333 0.06236,0.06236 0.202221,-0.06236 0.264584,0 0.06236,0.06236 0,0.17639 0,0.264583 0,0.440973 0,0.881947 0,1.322917 0,0.0882 -0.06236,0.202221 0,0.264583 0.06236,0.06236 0.202221,-0.06236 0.264583,0 0.06236,0.06236 0,0.17639 0,0.264584 0,0.184028 -0.04784,1.227235 0,1.322916 0.05578,0.111559 0.208804,0.153025 0.264583,0.264584 0.05245,0.104904 -0.05409,0.739661 0,0.79375 0.06236,0.06236 0.202221,-0.06236 0.264584,0 0.132291,0.132291 -0.132292,0.661458 0,0.79375 0.06236,0.06236 0.202221,-0.06236 0.264583,0 0.175779,0.175778 -0.175778,0.353388 0,0.529166 0.06236,0.06236 0.202221,-0.06236 0.264583,0 0.132292,0.132292 -0.132291,0.661459 0,0.79375 0.06236,0.06236 0.202221,-0.06236 0.264584,0 0.132291,0.132292 -0.132292,0.661459 0,0.79375 0.06236,0.06236 0.202221,-0.06236 0.264583,0 0.06236,0.06236 -0.06236,0.202221 0,0.264584 0.06236,0.06236 0.202221,-0.06236 0.264583,0 0.124725,0.124727 -0.124724,0.404442 0,0.529166 0.06236,0.06236 0.202221,-0.06236 0.264584,0 0.175778,0.175779 -0.175779,0.353388 0,0.529167 0.06236,0.06236 0.202221,-0.06236 0.264583,0 0.05409,0.05409 -0.05245,0.688845 0,0.79375 0.05578,0.111559 0.208804,0.153024 0.264583,0.264583 0.03944,0.07888 -0.06236,0.202221 0,0.264584 0.06236,0.06236 0.202221,-0.06236 0.264584,0 0.132291,0.132291 -0.132292,0.661458 0,0.79375 0.06236,0.06236 0.202221,-0.06236 0.264583,0 0.06236,0.06236 -0.03944,0.1857 0,0.264583 0.05578,0.111559 0.208804,0.153024 0.264583,0.264583 0.07177,0.143534 -0.0724,0.985938 0,1.058334 0.124725,0.124727 0.404442,-0.124725 0.529167,0 0.06367,0.06367 -0.06367,0.994666 0,1.058333 0.06236,0.06236 0.202221,-0.06236 0.264583,0 0.0724,0.0724 -0.07176,0.914799 0,1.058333 0.05578,0.111559 0.208804,0.153025 0.264584,0.264584 0.03478,0.06957 0,0.919977 0,1.058333 0,0.881946 0,1.76389 0,2.645833 0,0.119158 -0.04026,0.713229 0,0.79375 0.05578,0.111559 0.208804,0.153025 0.264583,0.264583 0.07177,0.143534 -0.0724,0.985938 0,1.058334 0.06236,0.06236 0.202221,-0.06236 0.264583,0 0.08193,0.08193 -0.08193,1.240988 0,1.322916 0.06236,0.06236 0.202221,-0.06236 0.264584,0 0.05409,0.05409 -0.05245,0.688846 0,0.79375 0.05578,0.111559 0.208804,0.153025 0.264583,0.264584 0.08315,0.166296 -0.08315,0.892037 0,1.058333 0.05578,0.111559 0.208804,0.153024 0.264583,0.264583 0.03944,0.07888 -0.06236,0.202221 0,0.264584 0.06236,0.06236 0.202221,-0.06236 0.264584,0 0.06236,0.06236 0,0.176389 0,0.264583 0,0.529167 0,1.058333 0,1.5875 0,0.0882 -0.06236,0.202221 0,0.264583 0.06236,0.06236 0.202221,-0.06236 0.264583,0 0.09287,0.09287 -0.09138,1.140161 0,1.322917 0.05578,0.111559 0.208804,0.153024 0.264583,0.264583 0.07177,0.143534 -0.0724,0.985938 0,1.058334 0.06236,0.06236 0.202221,-0.06236 0.264584,0 0.06236,0.06236 -0.03944,0.1857 0,0.264583 0.05578,0.111559 0.208804,0.153024 0.264583,0.264583 0.07888,0.157769 -0.124725,0.404442 0,0.529167 0.06236,0.06236 0.202221,-0.06236 0.264583,0 0.0724,0.0724 -0.07176,0.914799 0,1.058333 0.05578,0.111559 0.208804,0.153025 0.264584,0.264584 0.105833,0.211666 -0.105834,0.582083 0,0.79375 0.05578,0.111559 0.208804,0.153024 0.264583,0.264583 0.07177,0.143534 -0.0724,0.985938 0,1.058333 0.06236,0.06236 0.202221,-0.06236 0.264583,0 0.132292,0.132292 -0.132291,0.661459 0,0.79375 0.06236,0.06236 0.202221,-0.06236 0.264584,0 0.124724,0.124732 -0.124725,0.404442 0,0.529162 0.06236,0.0624 0.202221,-0.0624 0.264583,0 0.06367,0.0637 -0.06367,0.99467 0,1.05834 0.06236,0.0624 0.202221,-0.0624 0.264583,0 0.06367,0.0637 -0.06367,0.99466 0,1.05833 0.06236,0.0624 0.202221,-0.0624 0.264584,0 0.132291,0.13229 -0.132292,0.66146 0,0.79375 0.06236,0.0624 0.202221,-0.0624 0.264583,0 0.0724,0.0724 -0.07177,0.9148 0,1.05833 0.05578,0.11156 0.208804,0.15303 0.264583,0.26459 0.09138,0.18276 -0.09287,1.23004 0,1.32291 0.06236,0.0624 0.202221,-0.0624 0.264584,0 0.06236,0.0624 0,0.17639 0,0.26459 0,0.18403 -0.04784,1.22723 0,1.32291 0.05578,0.11156 0.208804,0.15303 0.264583,0.26459 0.05245,0.1049 -0.05409,0.73966 0,0.79375 0.06236,0.0624 0.202221,-0.0624 0.264583,0 0.0085,0.009 0,0.72958 0,0.79375 0,0.0882 0,0.17639 0,0.26458 0,0.0882 -0.06236,0.20222 0,0.26458 0.06236,0.0624 0.202221,-0.0624 0.264584,0 0.06236,0.0624 0,0.17639 0,0.26459 0,0.44097 0,0.88194 0,1.32291 0,0.0882 -0.06236,0.20223 0,0.26459 0.06236,0.0624 0.202221,-0.0624 0.264583,0 0.06236,0.0624 0,0.17639 0,0.26458 0,0.0882 0,0.17639 0,0.26458 0,0.52917 0,1.05834 0,1.5875 0,0.0882 -0.06236,0.20223 0,0.26459 0.06236,0.0624 0.202221,-0.0624 0.264583,0 0.08193,0.0819 -0.08193,1.24099 0,1.32291 0.06236,0.0624 0.202221,-0.0624 0.264584,0 0.06236,0.0624 0,0.17639 0,0.26459 0,0.44097 0,0.88194 0,1.32291 0,0.61737 0,1.23473 0,1.85209 0,0.0882 0.06236,0.20222 0,0.26458 -0.06236,0.0624 -0.202221,-0.0624 -0.264584,0 -0.132291,0.13229 0.132292,0.66146 0,0.79375 -0.06236,0.0624 -0.202221,-0.0624 -0.264583,0 -0.124725,0.12473 0.07888,0.3714 0,0.52917 -0.05578,0.11156 -0.17639,0.17639 -0.264583,0.26458 -0.08819,0.0882 -0.153025,0.20881 -0.264584,0.26458 -0.07888,0.0395 -0.202221,-0.0624 -0.264583,0 -0.06236,0.0624 0.06236,0.20223 0,0.26459 -0.06236,0.0624 -0.202221,-0.0624 -0.264583,0 -0.06236,0.0624 0.06236,0.20222 0,0.26458 -0.06236,0.0624 -0.202221,-0.0624 -0.264584,0 -0.06236,0.0624 0.06236,0.20222 0,0.26458 -0.06236,0.0624 -0.202221,-0.0624 -0.264583,0 -0.06236,0.0624 0.06236,0.20223 0,0.26459 -0.124725,0.12473 -0.404442,-0.12473 -0.529167,0 -0.06236,0.0624 0.06236,0.20222 0,0.26458 -0.124724,0.12473 -0.404442,-0.12472 -0.529166,0 -0.06236,0.0624 0.06236,0.20222 0,0.26458 -0.06236,0.0624 -0.202221,-0.0624 -0.264584,0 -0.06236,0.0624 0.06236,0.20223 0,0.26459 -0.132291,0.13229 -0.661458,-0.13229 -0.79375,0 -0.06236,0.0624 0.06236,0.20222 0,0.26458 -0.05409,0.0541 -0.688845,-0.0525 -0.79375,0 -0.111559,0.0558 -0.153024,0.20881 -0.264583,0.26458 -0.143534,0.0718 -0.985938,-0.0724 -1.058333,0 -0.06236,0.0624 0.06236,0.20223 0,0.26459 -0.124725,0.12473 -0.371401,-0.0789 -0.529167,0 -0.111559,0.0558 -0.153024,0.2088 -0.264583,0.26458 -0.182756,0.0914 -1.230043,-0.0929 -1.322917,0 -0.06236,0.0624 0.06236,0.20222 0,0.26458 -0.06236,0.0624 -0.17639,0 -0.264583,0 -0.08819,0 -0.17639,0 -0.264584,0 -0.06417,0 -0.785241,-0.009 -0.79375,0 -0.06236,0.0624 0.06236,0.20223 0,0.26459 -0.05409,0.0541 -0.688845,-0.0524 -0.79375,0 -0.111558,0.0558 -0.153024,0.2088 -0.264583,0.26458 -0.143534,0.0718 -0.985938,-0.0724 -1.058333,0 -0.06236,0.0624 0.06236,0.20222 0,0.26458 -0.06367,0.0637 -0.994667,-0.0637 -1.058334,0 -0.06236,0.0624 0.06236,0.20223 0,0.26459 -0.06236,0.0624 -0.176389,0 -0.264583,0 -0.124751,0 -1.310926,-0.012 -1.322917,0 -0.06236,0.0624 0.06236,0.20222 0,0.26458 -0.06367,0.0637 -0.994666,-0.0637 -1.058333,0 -0.06236,0.0624 0.06236,0.20222 0,0.26458 -0.06236,0.0624 -0.1857,-0.0394 -0.264583,0 -0.111559,0.0558 -0.153025,0.20881 -0.264584,0.26459 -0.143533,0.0718 -0.985938,-0.0724 -1.058333,0 -0.06236,0.0624 0.06236,0.20222 0,0.26458 -0.06367,0.0637 -0.994666,-0.0637 -1.058333,0 -0.06236,0.0624 0.06236,0.20222 0,0.26458 -0.132292,0.1323 -0.661458,-0.13229 -0.79375,0 -0.06236,0.0624 0.06236,0.20223 0,0.26459 -0.132292,0.13229 -0.661458,-0.13229 -0.79375,0 -0.06236,0.0624 0.06236,0.20222 0,0.26458 -0.124725,0.12473 -0.371401,-0.0789 -0.529167,0 -0.111559,0.0558 -0.153024,0.20881 -0.264583,0.26458 -0.104905,0.0525 -0.739659,-0.0541 -0.79375,0 -0.06236,0.0624 0.06236,0.20223 0,0.26459 -0.05409,0.0541 -0.688845,-0.0524 -0.79375,0 -0.111559,0.0558 -0.153025,0.2088 -0.264583,0.26458 -0.07888,0.0394 -0.202221,-0.0624 -0.264584,0 -0.06236,0.0624 0.06236,0.20222 0,0.26458 -0.124724,0.12473 -0.404442,-0.12472 -0.529166,0 -0.06236,0.0624 0.06236,0.20223 0,0.26459 -0.17639,0.17639 -0.352777,-0.17639 -0.529167,0 -0.06236,0.0624 0.06236,0.20222 0,0.26458 -0.124725,0.12473 -0.404442,-0.12472 -0.529167,0 -0.06236,0.0624 0.06236,0.20222 0,0.26458 -0.06236,0.0624 -0.202221,-0.0624 -0.264583,0 -0.06236,0.0624 0.06236,0.20223 0,0.26459 -0.124725,0.12473 -0.404442,-0.12473 -0.529167,0 -0.06236,0.0624 0.06236,0.20222 0,0.26458 -0.124724,0.12473 -0.404442,-0.12472 -0.529166,0 -0.06236,0.0624 0.06236,0.20222 0,0.26458 -0.06236,0.0624 -0.202221,-0.0624 -0.264584,0 -0.06236,0.0624 0.06236,0.20223 0,0.26459 -0.06236,0.0624 -0.202221,-0.0624 -0.264583,0 -0.06236,0.0624 0.06236,0.20222 0,0.26458 -0.06236,0.0624 -0.185701,-0.0394 -0.264583,0 -0.111559,0.0558 -0.153025,0.20881 -0.264584,0.26458 -0.07888,0.0395 -0.202221,-0.0624 -0.264583,0 -0.06236,0.0624 0,0.17639 0,0.26459 -0.08819,0 -0.202221,-0.0624 -0.264583,0 -0.06236,0.0624 0.06236,0.20222 0,0.26458 -0.06236,0.0624 -0.202221,-0.0624 -0.264584,0 -0.06236,0.0624 0.06236,0.20222 0,0.26458 -0.06236,0.0624 -0.202221,-0.0624 -0.264583,0 -0.06236,0.0624 0,0.17639 0,0.26459 -0.08819,0 -0.202221,-0.0624 -0.264583,0 -0.06236,0.0624 0.06236,0.20222 0,0.26458 -0.06236,0.0624 -0.185701,-0.0394 -0.264584,0 -0.111559,0.0558 -0.153024,0.20881 -0.264583,0.26458 -0.07888,0.0394 -0.202221,-0.0624 -0.264583,0 -0.124725,0.12473 0.124724,0.40445 0,0.52917 -0.06236,0.0624 -0.202221,-0.0624 -0.264584,0 -0.06236,0.0624 0.06236,0.20222 0,0.26458 -0.06236,0.0624 -0.202221,-0.0624 -0.264583,0 -0.06236,0.0624 0.06236,0.20223 0,0.26459 -0.06236,0.0624 -0.202221,-0.0624 -0.264583,0 -0.124725,0.12473 0.124724,0.40444 0,0.52916 -0.06236,0.0624 -0.202221,-0.0624 -0.264584,0 -0.06236,0.0624 0,0.17639 0,0.26459 -0.08819,0 -0.202221,-0.0624 -0.264583,0 -0.132292,0.13229 0.132292,0.66146 0,0.79375 -0.06236,0.0624 -0.202221,-0.0624 -0.264583,0 -0.06236,0.0624 0.06236,0.20222 0,0.26458 -0.06236,0.0624 -0.176389,0 -0.264584,0 0,0.0882 0.06236,0.20222 0,0.26458 -0.06236,0.0624 -0.20222,-0.0624 -0.264583,0 -0.132292,0.1323 0.132292,0.66146 0,0.79375 -0.06236,0.0624 -0.20222,-0.0624 -0.264583,0 -0.05409,0.0541 0.05245,0.68885 0,0.79375 -0.05578,0.11156 -0.208804,0.15303 -0.264584,0.26459 -0.09138,0.18276 0.09287,1.23004 0,1.32291 -0.06236,0.0624 -0.20222,-0.0624 -0.264583,0 -0.06367,0.0637 0.06367,0.99467 0,1.05834 -0.06236,0.0624 -0.20222,-0.0624 -0.264583,0 -0.06236,0.0624 0,0.17639 0,0.26458 0,0.52917 0,1.05833 0,1.5875 0,0.0882 0.06236,0.20222 0,0.26458 -0.06236,0.0624 -0.202221,-0.0624 -0.264584,0 -0.06236,0.0624 0,0.17639 0,0.26459 0,0.52916 0,1.05833 0,1.5875 0,0.70555 0,1.41111 0,2.11666 0,0.0882 -0.06236,0.20223 0,0.26459 0.178874,0.17887 0.350294,-0.17887 0.529167,0 0.132292,0.13229 -0.132292,0.66146 0,0.79375 0.06236,0.0624 0.202221,-0.0624 0.264583,0 0.06236,0.0624 -0.06236,0.20222 0,0.26458 0.06236,0.0624 0.202221,-0.0624 0.264584,0 0.06236,0.0624 -0.03944,0.1857 0,0.26458 0.550566,1.10114 -0.01827,-0.28284 0.529166,0.26459 0.06236,0.0624 -0.06236,0.20222 0,0.26458 0.06236,0.0624 0.202221,-0.0624 0.264584,0 0.06236,0.0624 -0.06236,0.20222 0,0.26458 0.06236,0.0624 0.20222,-0.0624 0.264583,0 0.06236,0.0624 -0.06236,0.20223 0,0.26459 0.06236,0.0624 0.202221,-0.0624 0.264583,0 0.06236,0.0624 -0.06236,0.20222 0,0.26458 0.124725,0.12473 0.404442,-0.12472 0.529167,0 0.124725,0.12473 -0.124725,0.40444 0,0.52917 0.06236,0.0624 0.17639,0 0.264583,0 0,0.0882 -0.06236,0.20222 0,0.26458 0.06236,0.0624 0.185701,-0.0394 0.264584,0 0.111559,0.0558 0.153024,0.2088 0.264583,0.26458 0.07888,0.0394 0.202221,-0.0624 0.264583,0 0.06236,0.0624 -0.06236,0.20223 0,0.26459 0.06236,0.0624 0.202221,-0.0624 0.264584,0 0.06236,0.0624 -0.06236,0.20222 0,0.26458 0.06236,0.0624 0.202221,-0.0624 0.264583,0 0.06236,0.0624 -0.06236,0.20222 0,0.26458 0.124725,0.12473 0.404442,-0.12472 0.529167,0 0.06236,0.0624 -0.06236,0.20223 0,0.26459 0.06236,0.0624 0.202221,-0.0624 0.264583,0 0.06236,0.0624 -0.06236,0.20222 0,0.26458 0.06236,0.0624 0.202221,-0.0624 0.264583,0 0.06236,0.0624 -0.06236,0.20222 0,0.26458 0.124725,0.12473 0.404442,-0.12472 0.529167,0 0.06236,0.0624 -0.06236,0.20223 0,0.26459 0.06236,0.0624 0.202221,-0.0624 0.264583,0 0.06236,0.0624 -0.06236,0.20222 0,0.26458 0.06236,0.0624 0.185701,-0.0394 0.264584,0 0.111559,0.0558 0.153024,0.2088 0.264583,0.26458 0.07888,0.0394 0.202221,-0.0624 0.264583,0 0.06236,0.0624 -0.06236,0.20223 0,0.26459 0.124725,0.12472 0.404442,-0.12473 0.529167,0 0.06236,0.0624 -0.06236,0.20222 0,0.26458 0.124725,0.12473 0.371401,-0.0789 0.529167,0 0.111559,0.0558 0.153024,0.2088 0.264583,0.26458 0.07888,0.0395 0.202221,-0.0624 0.264583,0 0.06236,0.0624 -0.06236,0.20223 0,0.26459 0.124725,0.12472 0.404442,-0.12473 0.529167,0 0.06236,0.0624 -0.06236,0.20222 0,0.26458 0.132292,0.13229 0.661458,-0.13229 0.79375,0 0.06236,0.0624 -0.06236,0.20222 0,0.26458 0.05409,0.0541 0.688845,-0.0524 0.79375,0 0.111559,0.0558 0.153024,0.20881 0.264583,0.26459 0.157766,0.0789 0.404442,-0.12473 0.529167,0 0.06236,0.0624 -0.06236,0.20222 0,0.26458 0.124724,0.12473 0.404442,-0.12472 0.529167,0 0.06236,0.0624 -0.06236,0.20222 0,0.26458 0.124724,0.12473 0.404442,-0.12472 0.529166,0 0.06236,0.0624 -0.06236,0.20223 0,0.26459 0.06367,0.0637 0.994667,-0.0637 1.058334,0 0.06236,0.0624 -0.06236,0.20222 0,0.26458 0.06367,0.0637 0.994666,-0.0637 1.058333,0 0.06236,0.0624 -0.06236,0.20222 0,0.26458 0.124724,0.12473 0.404442,-0.12472 0.529167,0 0.06236,0.0624 -0.06236,0.20223 0,0.26459 0.124724,0.12472 0.404442,-0.12473 0.529166,0 0.06236,0.0624 -0.06236,0.20222 0,0.26458 0.132292,0.13229 0.661458,-0.13229 0.79375,0 0.06236,0.0624 -0.06236,0.20222 0,0.26458 0.06367,0.0637 0.994667,-0.0637 1.058333,0 0.06236,0.0624 -0.06236,0.20223 0,0.26459 0.132292,0.13229 0.661459,-0.13229 0.79375,0 0.06236,0.0624 -0.06236,0.20222 0,0.26458 0.124725,0.12473 0.371401,-0.0789 0.529167,0 0.111559,0.0558 0.153025,0.2088 0.264583,0.26458 0.157766,0.0789 0.404443,-0.12472 0.529167,0 0.06236,0.0624 -0.06236,0.20223 0,0.26459 0.06367,0.0637 0.994667,-0.0637 1.058333,0 0.06236,0.0624 -0.06236,0.20222 0,0.26458 0.124725,0.12473 0.404443,-0.12472 0.529167,0 0.06236,0.0624 -0.06236,0.20222 0,0.26458 0.06236,0.0624 0.202221,-0.0624 0.264583,0 0.06236,0.0624 -0.06236,0.20223 0,0.26459 0.124725,0.12472 0.371401,-0.0789 0.529167,0 0.111559,0.0558 0.153024,0.2088 0.264583,0.26458 0.07888,0.0394 0.202221,-0.0624 0.264584,0 0.06236,0.0624 -0.06236,0.20222 0,0.26458 0.132291,0.1323 0.661458,-0.13229 0.79375,0 0.06236,0.0624 0,0.17639 0,0.26459 0.08819,0 0.202221,-0.0624 0.264583,0 0.06236,0.0624 -0.06236,0.20222 0,0.26458 0.06236,0.0624 0.185701,-0.0394 0.264583,0 0.111559,0.0558 0.153025,0.2088 0.264584,0.26458 0.07888,0.0394 0.1857,-0.0394 0.264583,0 0.111559,0.0558 0.153024,0.20881 0.264583,0.26459 0.07888,0.0394 0.202221,-0.0624 0.264584,0 0.06236,0.0624 -0.06236,0.20222 0,0.26458 0.06236,0.0624 0.1857,-0.0394 0.264583,0 0.111559,0.0558 0.153024,0.2088 0.264583,0.26458 0.07888,0.0394 0.202221,-0.0624 0.264584,0 0.06236,0.0624 -0.06236,0.20223 0,0.26459 0.132291,0.13229 0.661458,-0.13229 0.79375,0 0.06236,0.0624 -0.06236,0.20222 0,0.26458 0.124724,0.12473 0.404442,-0.12472 0.529166,0 0.06236,0.0624 -0.06236,0.20222 0,0.26458 0.132292,0.1323 0.661459,-0.13229 0.79375,0 0.06236,0.0624 -0.06236,0.20223 0,0.26459 0.124725,0.12472 0.371401,-0.0789 0.529167,0 0.111559,0.0558 0.153024,0.2088 0.264583,0.26458 0.166296,0.0831 0.892038,-0.0832 1.058334,0 0.111559,0.0558 0.153024,0.2088 0.264583,0.26458 0.157766,0.0789 0.371401,-0.0789 0.529167,0 0.111559,0.0558 0.153024,0.20881 0.264583,0.26459 0.157766,0.0789 0.404442,-0.12473 0.529167,0 0.06236,0.0624 -0.06236,0.20222 0,0.26458 0.132291,0.13229 0.661458,-0.13229 0.79375,0 0.06236,0.0624 -0.06236,0.20222 0,0.26458 0.06367,0.0637 0.994666,-0.0637 1.058333,0 0.06236,0.0624 -0.06236,0.20223 0,0.26459 0.0724,0.0724 0.914799,-0.0718 1.058333,0 0.111559,0.0558 0.153025,0.2088 0.264584,0.26458 0.07888,0.0394 0.202221,-0.0624 0.264583,0 0.06236,0.0624 -0.06236,0.20222 0,0.26458 0.06367,0.0637 0.994667,-0.0637 1.058333,0 0.06236,0.0624 -0.06236,0.20223 0,0.26459 0.0724,0.0724 0.9148,-0.0718 1.058334,0 0.111558,0.0558 0.153024,0.2088 0.264583,0.26458 0.182756,0.0914 1.230042,-0.0929 1.322917,0 0.06236,0.0624 -0.06236,0.20222 0,0.26458 0.124724,0.12473 0.404442,-0.12472 0.529166,0 0.06236,0.0624 -0.06236,0.20223 0,0.26459 0.06367,0.0637 0.994667,-0.0637 1.058334,0 0.06236,0.0624 -0.06236,0.20222 0,0.26458 0.06367,0.0637 0.994666,-0.0637 1.058333,0 0.06236,0.0624 -0.06236,0.20222 0,0.26458 0.01199,0.012 1.198165,0 1.322916,0 0.440974,0 0.881944,0 1.322917,0 0.08819,0 0.17639,0 0.264583,0 0.08819,0 0.185701,-0.0394 0.264584,0 0.111559,0.0558 0.153024,0.20881 0.264583,0.26459 0.08052,0.0403 0.674592,0 0.79375,0 0.705557,0 1.41111,0 2.116667,0 0.09716,0 1.047686,-0.0106 1.058333,0 0.06236,0.0624 -0.06236,0.20222 0,0.26458 0.132292,0.13229 0.661458,-0.13229 0.79375,0 0.06236,0.0624 -0.06236,0.20222 0,0.26458 0.06236,0.0624 0.17639,0 0.264583,0 0.440973,0 0.881944,0 1.322917,0 0.08819,0 0.202221,-0.0624 0.264583,0 0.06236,0.0624 -0.06236,0.20223 0,0.26459 0.06236,0.0624 0.17639,0 0.264584,0 0.705556,0 1.41111,0 2.116666,0 0.08819,0 0.17639,0 0.264584,0 0.08819,0 0.202221,-0.0624 0.264583,0 0.06236,0.0624 -0.06236,0.20222 0,0.26458 0.06236,0.0624 0.17639,0 0.264583,0 0.08819,0 0.17639,0 0.264584,0 0.529166,0 1.058333,0 1.5875,0 0.08819,0 0.176389,0 0.264583,0 0.08819,0 0.1857,-0.0394 0.264583,0 0.111559,0.0558 0.153025,0.2088 0.264584,0.26458 0.08052,0.0403 0.674592,0 0.79375,0 0.705556,0 1.41111,0 2.116666,0 0.119158,0 0.71323,-0.0403 0.79375,0 0.111559,0.0558 0.153025,0.20881 0.264584,0.26459 0.08052,0.0403 0.674592,0 0.79375,0 0.529166,0 1.058333,0 1.5875,0 0.08819,0 0.176389,0 0.264583,0 0.08819,0 0.202221,-0.0624 0.264583,0 0.06236,0.0624 -0.06236,0.20222 0,0.26458 0.06236,0.0624 0.17639,0 0.264584,0 0.08819,0 0.176389,0 0.264583,0 0.187537,0 1.519092,-0.0342 1.5875,0 0.111559,0.0558 0.153024,0.2088 0.264583,0.26458 0.08052,0.0403 0.674592,0 0.79375,0 0.529167,0 1.058334,0 1.5875,0 0.08819,0 0.17639,0 0.264583,0 0.08819,0 0.202222,-0.0624 0.264584,0 0.06236,0.0624 -0.06236,0.20223 0,0.26459 0.132291,0.13229 0.661458,-0.13229 0.79375,0 0.06236,0.0624 -0.06236,0.20222 0,0.26458 0.06236,0.0624 0.17639,0 0.264583,0 0.529167,0 1.058333,0 1.5875,0 0.09717,0 1.047687,-0.0106 1.058333,0 0.06236,0.0624 -0.06236,0.20222 0,0.26458 0.08193,0.0819 1.240989,-0.0819 1.322917,0 0.06236,0.0624 -0.06236,0.20223 0,0.26459 0.01064,0.0106 0.961168,0 1.058333,0 0.09717,0 1.047685,-0.0106 1.058335,0 0.0624,0.0624 -0.0624,0.20222 0,0.26458 0.0624,0.0624 0.17639,0 0.26458,0 0.0882,0 0.17639,0 0.26459,0 0.79375,0 1.5875,0 2.38125,0 1.94027,0 3.88055,0 5.82083,0 2.02847,0 4.05694,0 6.08542,0 0.0972,0 1.04768,0.0106 1.05833,0 0.0624,-0.0624 -0.0624,-0.20222 0,-0.26458 0.0624,-0.0624 0.17639,0 0.26458,0 0.0882,0 0.17639,0 0.26459,0 0.88194,0 1.76388,0 2.64583,0 0.13835,0 0.98876,0.0348 1.05833,0 0.11156,-0.0558 0.15303,-0.20881 0.26459,-0.26459 0.0957,-0.0478 1.13888,0 1.32291,0 0.0882,0 0.20222,0.0624 0.26459,0 0.0624,-0.0624 -0.0624,-0.20222 0,-0.26458 0.0929,-0.0929 1.14016,0.0914 1.32291,0 0.11156,-0.0558 0.15303,-0.2088 0.26459,-0.26458 0.18275,-0.0914 1.23004,0.0929 1.32291,0 0.0624,-0.0624 -0.0624,-0.20222 0,-0.26459 0.0624,-0.0624 0.17639,0 0.26459,0 0.44097,0 0.88194,0 1.32291,0 0.0882,0 0.20222,0.0624 0.26459,0 0.0624,-0.0624 -0.0624,-0.20222 0,-0.26458 0.0624,-0.0624 0.17638,0 0.26458,0 0.12475,0 1.31092,0.012 1.32292,0 0.0624,-0.0624 -0.0624,-0.20222 0,-0.26458 0.0637,-0.0637 0.99466,0.0637 1.05833,0 0.0624,-0.0624 -0.0624,-0.20222 0,-0.26459 0.0637,-0.0637 0.99466,0.0637 1.05833,0 0.0624,-0.0624 -0.0624,-0.20222 0,-0.26458 0.0624,-0.0624 0.17639,0 0.26459,0 0.0882,0 0.17638,0 0.26458,0 0.0642,0 0.78524,0.009 0.79375,0 0.0624,-0.0624 -0.0624,-0.20222 0,-0.26458 0.0637,-0.0637 0.99466,0.0637 1.05833,0 0.0624,-0.0624 -0.0624,-0.20222 0,-0.26459 0.13229,-0.13229 0.66146,0.1323 0.79375,0 0.0624,-0.0624 -0.0624,-0.20222 0,-0.26458 0.13229,-0.13229 0.66146,0.13229 0.79375,0 0.0624,-0.0624 -0.0624,-0.20222 0,-0.26458 0.0637,-0.0637 0.99467,0.0637 1.05833,0 0.0624,-0.0624 -0.0624,-0.20222 0,-0.26459 0.12473,-0.12472 0.37141,0.0789 0.52917,0 0.11156,-0.0558 0.15303,-0.2088 0.26458,-0.26458 0.14354,-0.0718 0.98594,0.0724 1.05834,0 0.0624,-0.0624 -0.0624,-0.20222 0,-0.26458 0.12472,-0.12473 0.40444,0.12472 0.52916,0 0.0624,-0.0624 -0.0624,-0.20222 0,-0.26459 0.12473,-0.12472 0.37141,0.0789 0.52917,0 0.11156,-0.0558 0.15303,-0.2088 0.26458,-0.26458 0.16692,-0.0835 1.156,0.0835 1.32292,0 0.11156,-0.0558 0.15303,-0.2088 0.26458,-0.26458 0.14354,-0.0718 0.98594,0.0724 1.05834,0 0.0624,-0.0624 -0.0624,-0.20222 0,-0.26459 0.0819,-0.0819 1.24099,0.0819 1.32291,0 0.0624,-0.0624 -0.0624,-0.20222 0,-0.26458 0.0624,-0.0624 0.17639,0 0.26459,0 0.44097,0 0.88194,0 1.32291,0 0.0882,0 0.20223,0.0624 0.26459,0 0.0624,-0.0624 -0.0624,-0.20222 0,-0.26458 0.0624,-0.0624 0.17639,0 0.26458,0 0.52917,0 1.05833,0 1.5875,0 0.0882,0 0.20222,0.0624 0.26458,0 0.0624,-0.0624 -0.0624,-0.20222 0,-0.26459 0.012,-0.012 1.19817,0 1.32292,0 0.0882,0 0.20222,0.0624 0.26458,0 0.0624,-0.0624 -0.0624,-0.20222 0,-0.26458 0.0637,-0.0637 0.99467,0.0637 1.05834,0 0.0624,-0.0624 -0.0624,-0.20222 0,-0.26458 0.0724,-0.0724 0.9148,0.0718 1.05833,0 0.11156,-0.0558 0.15303,-0.20881 0.26458,-0.26459 0.14354,-0.0718 0.98594,0.0724 1.05834,0 0.0624,-0.0624 -0.0624,-0.20222 0,-0.26458 0.0637,-0.0637 0.99466,0.0637 1.05833,0 0.0624,-0.0624 -0.0624,-0.20222 0,-0.26458 0.0624,-0.0624 0.1857,0.0394 0.26458,0 0.11156,-0.0558 0.15303,-0.20881 0.26459,-0.26459 0.0789,-0.0394 0.20222,0.0624 0.26458,0 0.0624,-0.0624 -0.0624,-0.20222 0,-0.26458 0.13229,-0.13229 0.66146,0.13229 0.79375,0 0.0624,-0.0624 -0.0624,-0.20222 0,-0.26458 0.0624,-0.0624 0.20222,0.0624 0.26458,0 0.0624,-0.0624 -0.0624,-0.20222 0,-0.26459 0.0624,-0.0624 0.20223,0.0624 0.26459,0 0.0624,-0.0624 -0.0624,-0.20222 0,-0.26458 0.12472,-0.12472 0.40444,0.12473 0.52916,0 0.0624,-0.0624 -0.0624,-0.20222 0,-0.26458 0.0624,-0.0624 0.18571,0.0394 0.26459,0 0.11156,-0.0558 0.15302,-0.20881 0.26458,-0.26459 0.15777,-0.0789 0.40444,0.12473 0.52917,0 0.0624,-0.0624 -0.0394,-0.1857 0,-0.26458 0.55056,-1.10113 -0.0183,0.28285 0.52916,-0.26458 0.0624,-0.0624 -0.0624,-0.20222 0,-0.26459 0.12473,-0.12472 0.40445,0.12473 0.52917,0 0.0624,-0.0624 -0.0624,-0.20222 0,-0.26458 0.0624,-0.0624 0.20222,0.0624 0.26458,0 0.54744,-0.54743 -0.83654,0.0214 0.26459,-0.52917 0.15776,-0.0789 0.40444,0.12473 0.52916,0 0.0624,-0.0624 -0.0624,-0.20222 0,-0.26458 0.0624,-0.0624 0.20223,0.0624 0.26459,0 0.0624,-0.0624 -0.0624,-0.20222 0,-0.26458 0.0624,-0.0624 0.20222,0.0624 0.26458,0 0.0624,-0.0624 -0.0624,-0.20222 0,-0.26459 0.0624,-0.0624 0.20222,0.0624 0.26458,0 0.0624,-0.0624 -0.0624,-0.20222 0,-0.26458 0.0624,-0.0624 0.20223,0.0624 0.26459,0 0.0624,-0.0624 -0.0624,-0.20222 0,-0.26458 0.12472,-0.12473 0.40444,0.12472 0.52916,0 0.0624,-0.0624 -0.0624,-0.20222 0,-0.26459 0.0624,-0.0624 0.20223,0.0624 0.26459,0 0.0624,-0.0624 -0.0624,-0.20222 0,-0.26458 0.0624,-0.0624 0.20222,0.0624 0.26458,0 0.0624,-0.0624 -0.0624,-0.20222 0,-0.26458 0.0624,-0.0624 0.20222,0.0624 0.26458,0 0.0624,-0.0624 -0.0624,-0.20222 0,-0.26459 0.0624,-0.0624 0.20223,0.0624 0.26459,0 0.0624,-0.0624 -0.0624,-0.20222 0,-0.26458 0.70555,0 -0.0882,0.0882 0.26458,-0.26458 0.12473,-0.12473 0.40444,0.12472 0.52917,0 0.0624,-0.0624 -0.0624,-0.20222 0,-0.26459 0.0624,-0.0624 0.20222,0.0624 0.26458,0 0.0624,-0.0624 -0.0624,-0.20222 0,-0.26458 0.0624,-0.0624 0.20222,0.0624 0.26458,0 0.0624,-0.0624 -0.0624,-0.20222 0,-0.26458 0.12473,-0.12473 0.40445,0.12472 0.52917,0 0.0624,-0.0624 -0.0624,-0.20222 0,-0.26459 0.12473,-0.12472 0.40444,0.12473 0.52917,0 0.0624,-0.0624 -0.0624,-0.20222 0,-0.26458 0.0624,-0.0624 0.20222,0.0624 0.26458,0 0.0624,-0.0624 -0.0624,-0.20222 0,-0.26458 0.0624,-0.0624 0.1857,0.0394 0.26458,0 0.11156,-0.0558 0.15303,-0.20881 0.26459,-0.26459 0.0789,-0.0394 0.20222,0.0624 0.26458,0 0.0624,-0.0624 -0.0624,-0.20222 0,-0.26458 0.13229,-0.13229 0.66146,0.13229 0.79375,0 0.0624,-0.0624 -0.0624,-0.20222 0,-0.26458 0.0624,-0.0624 0.17639,0 0.26458,0 0,-0.0882 -0.0624,-0.20222 0,-0.26459 0.12473,-0.12472 0.40445,0.12473 0.52917,0 0.0624,-0.0624 -0.0624,-0.20222 0,-0.26458 0.12473,-0.12472 0.40444,0.12473 0.52917,0 0.0624,-0.0624 -0.0624,-0.20222 0,-0.26458 0.12472,-0.12473 0.40444,0.12472 0.52916,0 0.0624,-0.0624 -0.0624,-0.20222 0,-0.26459 0.0624,-0.0624 0.20223,0.0624 0.26459,0 0.0624,-0.0624 -0.0624,-0.20222 0,-0.26458 0.0624,-0.0624 0.20222,0.0624 0.26458,0 0.0624,-0.0624 -0.0624,-0.20222 0,-0.26458 0.12473,-0.12473 0.40444,0.12472 0.52917,0 0.0624,-0.0624 -0.0624,-0.20222 0,-0.26459 0.0624,-0.0624 0.1857,0.0395 0.26458,0 1.10113,-0.55056 -0.28285,0.0183 0.26458,-0.52916 0.0624,-0.0624 0.20223,0.0624 0.26459,0 0.0624,-0.0624 -0.0624,-0.20222 0,-0.26459 0.0624,-0.0624 0.20222,0.0624 0.26458,0 0.0624,-0.0624 0,-0.17638 0,-0.26458 0.0882,0 0.1857,0.0394 0.26458,0 1.10114,-0.55057 -0.28285,0.0183 0.26459,-0.52917 0.0624,-0.0624 0.20222,0.0624 0.26458,0 0.0624,-0.0624 -0.0624,-0.20222 0,-0.26458 0.0624,-0.0624 0.20222,0.0624 0.26458,0 0.0624,-0.0624 -0.0624,-0.20222 0,-0.26458 0.12473,-0.12473 0.40445,0.12472 0.52917,0 0.12473,-0.12473 -0.12472,-0.40444 0,-0.52917 0.0624,-0.0624 0.20222,0.0624 0.26458,0 0.0624,-0.0624 -0.0624,-0.20222 0,-0.26458 0.0624,-0.0624 0.20223,0.0624 0.26459,0 0.0624,-0.0624 -0.0624,-0.20222 0,-0.26459 0.0624,-0.0624 0.20222,0.0624 0.26458,0 0.0624,-0.0624 -0.0624,-0.20222 0,-0.26458 0.0624,-0.0624 0.20222,0.0624 0.26458,0 0.0624,-0.0624 -0.0394,-0.1857 0,-0.26458 0.0558,-0.11156 0.20881,-0.15303 0.26459,-0.26459 0.0394,-0.0789 -0.0624,-0.20222 0,-0.26458 0.12472,-0.12472 0.40444,0.12473 0.52916,0 0.0624,-0.0624 -0.0394,-0.1857 0,-0.26458 0.0558,-0.11156 0.20881,-0.15303 0.26459,-0.26459 0.0394,-0.0789 -0.0624,-0.20222 0,-0.26458 0.0624,-0.0624 0.20222,0.0624 0.26458,0 0.0624,-0.0624 -0.0624,-0.20222 0,-0.26458 0.12473,-0.12473 0.40444,0.12472 0.52917,0 0.13229,-0.13229 -0.13229,-0.66146 0,-0.79375 0.0624,-0.0624 0.20222,0.0624 0.26458,0 0.0106,-0.0106 0,-0.96117 0,-1.05834 0,-0.70555 -0.0882,0.0882 0.26458,-0.26458 0.0106,-0.0106 0,-0.96117 0,-1.05833 0,-2.29306 0,-4.58611 0,-6.87917 0,-0.52917 0,-1.05833 0,-1.5875 0,-0.0882 0.0624,-0.20222 0,-0.26458 -0.0624,-0.0624 -0.20222,0.0624 -0.26458,0 -0.0624,-0.0624 0.0624,-0.20222 0,-0.26459 -0.12472,-0.12472 -0.40444,0.12473 -0.52917,0 -0.12472,-0.12472 0.12473,-0.40443 0,-0.52916 -0.13229,-0.13229 -0.66145,0.13229 -0.79375,0 -0.0624,-0.0624 0.0624,-0.20222 0,-0.26459 -0.12472,-0.12472 -0.40444,0.12473 -0.52916,0 -0.0624,-0.0624 0.0624,-0.20222 0,-0.26458 -0.0624,-0.0624 -0.20222,0.0624 -0.26459,0 -0.0624,-0.0624 0.0624,-0.20222 0,-0.26458 -0.12472,-0.12473 -0.40444,0.12473 -0.52916,0 -0.0624,-0.0624 0.0624,-0.20222 0,-0.26459 -0.12473,-0.12472 -0.40444,0.12473 -0.52917,0 -0.0624,-0.0624 0.0624,-0.20222 0,-0.26458 -0.13229,-0.13229 -0.66146,0.13229 -0.79375,0 -0.0624,-0.0624 0.0624,-0.20222 0,-0.26458 -0.12472,-0.12473 -0.40444,0.12473 -0.52917,0 -0.0624,-0.0624 0.0624,-0.20222 0,-0.26459 -0.13229,-0.13229 -0.66145,0.1323 -0.79375,0 -0.0624,-0.0624 0.0624,-0.20222 0,-0.26458 -0.0624,-0.0624 -0.20222,0.0624 -0.26458,0 -0.0624,-0.0624 0.0624,-0.20222 0,-0.26458 -0.13229,-0.13229 -0.66146,0.13229 -0.79375,0 -0.0624,-0.0624 0.0624,-0.20222 0,-0.26459 -0.13229,-0.13229 -0.66146,0.1323 -0.79375,0 -0.0624,-0.0624 0.0624,-0.20222 0,-0.26458 -0.0637,-0.0637 -0.99467,0.0637 -1.05833,0 -0.0624,-0.0624 0.0624,-0.20222 0,-0.26458 -0.0624,-0.0624 -0.20222,0.0624 -0.26459,0 -0.0624,-0.0624 0.0624,-0.20222 0,-0.26459 -0.0637,-0.0637 -0.99466,0.0637 -1.05833,0 -0.0624,-0.0624 0.0624,-0.20222 0,-0.26458 -0.0637,-0.0637 -0.99467,0.0637 -1.05833,0 -0.0624,-0.0624 0.0624,-0.20222 0,-0.26458 -0.0819,-0.0819 -1.24099,0.0819 -1.32292,0 -0.0624,-0.0624 0.0624,-0.20222 0,-0.26459 -0.12472,-0.12472 -0.40444,0.12473 -0.52917,0 -0.0624,-0.0624 0.0624,-0.20222 0,-0.26458 -0.0637,-0.0637 -0.99466,0.0637 -1.05833,0 -0.0624,-0.0624 0.0624,-0.20222 0,-0.26458 -0.0724,-0.0724 -0.9148,0.0718 -1.05833,0 -0.11156,-0.0558 -0.15303,-0.20881 -0.26459,-0.26459 -0.0957,-0.0478 -1.13888,0 -1.32291,0 -0.0882,0 -0.20222,0.0624 -0.26459,0 -0.0624,-0.0624 0.0624,-0.20222 0,-0.26458 -0.12472,-0.12472 -0.40444,0.12473 -0.52916,0 -0.0624,-0.0624 0.0624,-0.20222 0,-0.26458 -0.0819,-0.0819 -1.24099,0.0819 -1.32292,0 -0.0624,-0.0624 0.0624,-0.20222 0,-0.26459 -0.0819,-0.0819 -1.24099,0.0819 -1.32292,0 -0.0624,-0.0624 0.0624,-0.20222 0,-0.26458 -0.0819,-0.0819 -1.24098,0.0819 -1.32291,0 -0.0624,-0.0624 0.0624,-0.20222 0,-0.26458 -0.13229,-0.13229 -0.66146,0.13229 -0.79375,0 -0.0624,-0.0624 0.0624,-0.20222 0,-0.26459 -0.0637,-0.0637 -0.99467,0.0637 -1.05834,0 -0.0624,-0.0624 0.0624,-0.20222 0,-0.26458 -0.13229,-0.13229 -0.66145,0.13229 -0.79375,0 -0.0624,-0.0624 0.0624,-0.20222 0,-0.26458 -0.12472,-0.12473 -0.40444,0.12473 -0.52916,0 -0.0624,-0.0624 0.0394,-0.1857 0,-0.26459 -0.55057,-1.10113 0.0182,0.28285 -0.52917,-0.26458 -0.0624,-0.0624 0.0624,-0.20222 0,-0.26458 -0.0624,-0.0624 -0.20222,0.0624 -0.26458,0 -0.0624,-0.0624 0.0624,-0.20222 0,-0.26459 -0.0624,-0.0624 -0.20222,0.0624 -0.26459,0 -0.0624,-0.0624 0.0624,-0.20222 0,-0.26458 -0.0624,-0.0624 -0.20222,0.0624 -0.26458,0 -0.0624,-0.0624 0.0624,-0.20222 0,-0.26458 -0.0624,-0.0624 -0.20222,0.0624 -0.26458,0 -0.0624,-0.0624 0.0624,-0.20222 0,-0.26459 -0.0624,-0.0624 -0.20222,0.0624 -0.26459,0 -0.0624,-0.0624 0.0624,-0.20222 0,-0.26458 -0.0624,-0.0624 -0.20222,0.0624 -0.26458,0 -0.12472,-0.12472 0.12473,-0.40444 0,-0.52917 -0.0624,-0.0624 -0.20222,0.0624 -0.26458,0 -0.0624,-0.0624 0.0624,-0.20222 0,-0.26458 -0.0624,-0.0624 -0.20222,0.0624 -0.26459,0 -0.0624,-0.0624 0.0624,-0.20222 0,-0.26458 -0.0624,-0.0624 -0.20222,0.0624 -0.26458,0 -0.0624,-0.0624 0.0624,-0.20222 0,-0.26459 -0.0624,-0.0624 -0.20222,0.0624 -0.26458,0 -0.13229,-0.13229 0.13229,-0.66145 0,-0.79375 -0.0624,-0.0624 -0.20222,0.0624 -0.26459,0 -0.0624,-0.0624 0.0624,-0.20222 0,-0.26458 -0.0624,-0.0624 -0.20222,0.0624 -0.26458,0 -0.17578,-0.17578 0.17578,-0.35339 0,-0.52917 -0.0624,-0.0624 -0.20222,0.0624 -0.26458,0 -0.13229,-0.13229 0.13229,-0.66145 0,-0.79375 -0.0624,-0.0624 -0.20222,0.0624 -0.26459,0 -0.009,-0.009 0,-0.72958 0,-0.79375 0,-0.0882 0,-0.17638 0,-0.26458 0,-0.0882 0.0624,-0.20222 0,-0.26458 -0.0624,-0.0624 -0.20222,0.0624 -0.26458,0 -0.12472,-0.12473 0.12473,-0.40444 0,-0.52917 -0.0624,-0.0624 -0.20222,0.0624 -0.26458,0 -0.0624,-0.0624 0,-0.17639 0,-0.26458 0,-0.0882 0,-0.17639 0,-0.26459 0,-0.70555 0,-1.41111 0,-2.11666 0,-0.0972 0.0106,-1.04769 0,-1.05834 -0.0624,-0.0624 -0.20222,0.0624 -0.26459,0 -0.0624,-0.0624 0,-0.17638 0,-0.26458 0,-0.0882 0,-0.17639 0,-0.26458 0,-0.88195 0,-1.76389 0,-2.64584 0,-1.76388 0,-3.52777 0,-5.29166 0,-0.0642 -0.009,-0.78524 0,-0.79375 0.0624,-0.0624 0.20223,0.0624 0.26459,0 0.13229,-0.13229 -0.13229,-0.66146 0,-0.79375 0.0624,-0.0624 0.20222,0.0624 0.26458,0 0.0637,-0.0637 -0.0637,-0.99467 0,-1.05834 0.0624,-0.0624 0.20222,0.0624 0.26458,0 0.0624,-0.0624 0,-0.17638 0,-0.26458 0,-0.0882 0,-0.17639 0,-0.26458 0,-0.0882 0,-0.17639 0,-0.26459 0,-0.0882 -0.0624,-0.20222 0,-0.26458 0.0624,-0.0624 0.20223,0.0624 0.26459,0 0.0637,-0.0637 -0.0637,-0.99467 0,-1.05833 0.12472,-0.12473 0.40444,0.12473 0.52916,0 0.0819,-0.0819 -0.0819,-1.24099 0,-1.322918 0.0624,-0.06236 0.20223,0.06236 0.26459,0 0.13229,-0.132292 -0.13229,-0.661459 0,-0.79375 0.0624,-0.06236 0.20222,0.06236 0.26458,0 0.0637,-0.06367 -0.0637,-0.994667 0,-1.058334 0.0624,-0.06236 0.20222,0.06236 0.26458,0 0.17578,-0.175778 -0.17577,-0.353388 0,-0.529166 0.0624,-0.06236 0.20223,0.06236 0.26459,0 0.0637,-0.06367 -0.0637,-0.994667 0,-1.058334 0.0624,-0.06236 0.20222,0.06236 0.26458,0 0.0637,-0.06367 -0.0637,-0.994666 0,-1.058333 0.0624,-0.06236 0.20222,0.06236 0.26458,0 0.0819,-0.08193 -0.0819,-1.240988 0,-1.322917 0.0624,-0.06236 0.20223,0.06236 0.26459,0 0.0541,-0.05409 -0.0525,-0.688845 0,-0.79375 0.0558,-0.111559 0.2088,-0.153024 0.26458,-0.264583 0.0914,-0.182756 -0.0929,-1.230043 0,-1.322917 0.0624,-0.06236 0.20222,0.06236 0.26458,0 0.0624,-0.06236 0,-0.176387 0,-0.264583 0,-0.124751 -0.012,-1.310926 0,-1.322917 0.0624,-0.06236 0.20223,0.06236 0.26459,0 0.0637,-0.06367 -0.0637,-0.994666 0,-1.058333 0.0624,-0.06236 0.20222,0.06236 0.26458,0 0.12473,-0.124725 -0.0789,-0.371398 0,-0.529167 0.0558,-0.111559 0.20881,-0.153024 0.26458,-0.264583 0.0914,-0.182756 -0.0929,-1.230043 0,-1.322917 0.0624,-0.06236 0.20223,0.06236 0.26459,0 0.0929,-0.09287 -0.0914,-1.140158 0,-1.322916 0.32694,-0.653891 0.26458,0.09133 0.26458,-0.529167 0,-0.124751 -0.012,-1.310926 0,-1.322917 0.0624,-0.06236 0.20222,0.06236 0.26458,0 0.12473,-0.124724 -0.0789,-0.371398 0,-0.529166 0.0558,-0.111559 0.20881,-0.153025 0.26459,-0.264584 0.0394,-0.07888 0,-0.176387 0,-0.264583 0,-0.08819 0,-0.176387 0,-0.264583 0,-0.440971 0,-0.881944 0,-1.322917 0,-0.08819 -0.0394,-0.1857 0,-0.264583 0.0558,-0.111559 0.2088,-0.153025 0.26458,-0.264583 0.0831,-0.166296 -0.0832,-0.892038 0,-1.058334 0.32695,-0.653891 0.26458,0.09133 0.26458,-0.529166 0,-0.440971 0,-0.881944 0,-1.322917 0,-0.08819 -0.0624,-0.202221 0,-0.264583 0.0624,-0.06236 0.20223,0.06236 0.26459,0 0.12472,-0.124725 -0.12473,-0.40444 0,-0.529167 0.0624,-0.06236 0.20222,0.06236 0.26458,0 0.0929,-0.09287 -0.0914,-1.140158 0,-1.322917 0.0558,-0.111559 0.20881,-0.153024 0.26458,-0.264583 0.0835,-0.166918 -0.0834,-1.155999 0,-1.322917 0.0558,-0.111559 0.20881,-0.153024 0.26459,-0.264583 0.0835,-0.166918 -0.0835,-1.155999 0,-1.322917 0.0558,-0.111559 0.2088,-0.153024 0.26458,-0.264583 0.0525,-0.104905 -0.0541,-0.739659 0,-0.79375 0.0624,-0.06236 0.20222,0.06236 0.26458,0 0.1323,-0.132292 -0.13229,-0.661458 0,-0.79375 0.0624,-0.06236 0.20223,0.06236 0.26459,0 0.0929,-0.09287 -0.0914,-1.140158 0,-1.322917 0.0558,-0.111559 0.2088,-0.153024 0.26458,-0.264583 0.0525,-0.104905 -0.0541,-0.739659 0,-0.79375 0.0624,-0.06236 0.20222,0.06236 0.26458,0 0.0819,-0.08193 -0.0819,-1.240988 0,-1.322917 0.0624,-0.06236 0.20223,0.06236 0.26459,0 0.12472,-0.124724 -0.12473,-0.404439 0,-0.529166 0.0624,-0.06236 0.20222,0.06236 0.26458,0 0.0637,-0.06367 -0.0637,-0.994667 0,-1.058334 0.0624,-0.06236 0.20222,0.06236 0.26458,0 0.0724,-0.0724 -0.0718,-0.914799 0,-1.058333 0.0558,-0.111559 0.20881,-0.153024 0.26459,-0.264583 0.0718,-0.143534 -0.0724,-0.985938 0,-1.058334 0.0624,-0.06236 0.20222,0.06236 0.26458,0 0.13229,-0.132291 -0.13229,-0.661458 0,-0.79375 0.0624,-0.06236 0.20222,0.06236 0.26458,0 0.0637,-0.06367 -0.0637,-0.994666 0,-1.058333 0.0624,-0.06236 0.20223,0.06236 0.26459,0 0.0819,-0.08193 -0.0819,-1.240988 0,-1.322917 0.0624,-0.06236 0.20222,0.06236 0.26458,0 0.0819,-0.08193 -0.0819,-1.240988 0,-1.322916 0.0624,-0.06236 0.20222,0.06236 0.26458,0 0.009,-0.0085 0,-0.729581 0,-0.79375 0,-0.08819 0,-0.176387 0,-0.264584 0,-0.08819 -0.0624,-0.202221 0,-0.264583 0.0624,-0.06236 0.20223,0.06236 0.26459,0 0.0624,-0.06236 0,-0.176387 0,-0.264583 0,-0.08819 0,-0.176387 0,-0.264584 0,-1.322916 0,-2.645833 0,-3.968749 0,-0.08819 0,-0.176388 0,-0.264584 0,-0.08819 0.0624,-0.202221 0,-0.264583 -0.0624,-0.06236 -0.20222,0.06236 -0.26459,0 -0.0637,-0.06367 0.0637,-0.994667 0,-1.058333 -0.0624,-0.06236 -0.20222,0.06236 -0.26458,0 -0.0624,-0.06236 0.0624,-0.202221 0,-0.264584 -0.0624,-0.06236 -0.20222,0.06236 -0.26458,0 -0.13229,-0.132291 0.13229,-0.661458 0,-0.79375 -0.12473,-0.124724 -0.40444,0.124727 -0.52917,0 -0.12472,-0.124724 0.12473,-0.404439 0,-0.529166 -0.0624,-0.06236 -0.20222,0.06236 -0.26458,0 -0.12473,-0.124725 0.12472,-0.40444 0,-0.529167 -0.0624,-0.06236 -0.20222,0.06236 -0.26459,0 -0.0624,-0.06236 0.0624,-0.202221 0,-0.264583 -0.0624,-0.06236 -0.1857,0.03944 -0.26458,0 -1.10113,-0.550567 0.28285,0.01826 -0.26458,-0.529167 -0.0624,-0.06236 -0.20222,0.06236 -0.26459,0 -0.0624,-0.06236 0.0624,-0.202221 0,-0.264583 -0.0624,-0.06236 -0.20222,0.06236 -0.26458,0 -0.0624,-0.06236 0.0624,-0.202221 0,-0.264584 -0.0624,-0.06236 -0.20222,0.06236 -0.26458,0 -0.0624,-0.06236 0.0624,-0.202221 0,-0.264583 -0.0624,-0.06236 -0.20222,0.06236 -0.26459,0 -0.54743,-0.547431 0.83655,0.02141 -0.26458,-0.529167 -0.0789,-0.03944 -0.20222,0.06236 -0.26458,0 -0.12473,-0.124724 0.12472,-0.404439 0,-0.529166 -0.12473,-0.124725 -0.40444,0.124727 -0.52917,0 -0.0624,-0.06236 0.0624,-0.202221 0,-0.264584 -0.0624,-0.06236 -0.20222,0.06236 -0.26458,0 -0.0624,-0.06236 0.0624,-0.202221 0,-0.264583 -0.0624,-0.06236 -0.20222,0.06236 -0.26459,0 -0.0624,-0.06236 0.0624,-0.202221 0,-0.264583 -0.0624,-0.06236 -0.20222,0.06236 -0.26458,0 -0.0624,-0.06236 0.0624,-0.202221 0,-0.264584 -0.12472,-0.124724 -0.40444,0.124728 -0.52917,0 -0.12472,-0.124724 0.12473,-0.404439 0,-0.529166 -0.12472,-0.124725 -0.40444,0.124727 -0.52916,0 -0.0624,-0.06236 0.0624,-0.202221 0,-0.264584 -0.12473,-0.124724 -0.40444,0.124728 -0.52917,0 -0.0624,-0.06236 0.0624,-0.202221 0,-0.264583 -0.0624,-0.06236 -0.20222,0.06236 -0.26458,0 -0.0624,-0.06236 0.0624,-0.202221 0,-0.264583 -0.0624,-0.06236 -0.20222,0.06236 -0.26459,0 -0.0624,-0.06236 0.0624,-0.202221 0,-0.264584 -0.0624,-0.06236 -0.20222,0.06236 -0.26458,0 -0.0624,-0.06236 0.0624,-0.202221 0,-0.264583 -0.13229,-0.132292 -0.66146,0.132292 -0.79375,0 -0.0624,-0.06236 0.0624,-0.202221 0,-0.264583 -0.12472,-0.124725 -0.40444,0.124727 -0.52917,0 -0.0624,-0.06236 0.0624,-0.202221 0,-0.264584 -0.12472,-0.124724 -0.40444,0.124728 -0.52916,0 -0.12473,-0.124724 0.12472,-0.404439 0,-0.529166 -0.13229,-0.132292 -0.66146,0.132291 -0.79375,0 -0.0624,-0.06236 0.0624,-0.202221 0,-0.264584 -0.13229,-0.132291 -0.66146,0.132292 -0.79375,0 -0.0624,-0.06236 0.0624,-0.202221 0,-0.264583 -0.12473,-0.124725 -0.40444,0.124727 -0.52917,0 -0.0624,-0.06236 0.0624,-0.202221 0,-0.264583 -0.12472,-0.124725 -0.40444,0.124727 -0.52917,0 -0.0624,-0.06236 0.0624,-0.202221 0,-0.264584 -0.12472,-0.124724 -0.3714,0.07888 -0.52916,0 -0.11156,-0.05578 -0.15303,-0.208804 -0.26459,-0.264583 -0.15776,-0.07888 -0.40444,0.124727 -0.52916,0 -0.0624,-0.06236 0.0624,-0.202221 0,-0.264583 -0.0637,-0.06367 -0.99467,0.06367 -1.05834,0 -0.54743,-0.547431 0.83655,0.0214 -0.26458,-0.529167 -0.21167,-0.105833 -0.58208,0.105833 -0.79375,0 -0.11156,-0.05578 -0.15302,-0.208804 -0.26458,-0.264583 -0.10491,-0.05245 -0.73966,0.05409 -0.79375,0 -0.0624,-0.06236 0.0624,-0.202221 0,-0.264584 -0.12473,-0.124724 -0.40444,0.124728 -0.52917,0 -0.0624,-0.06236 0.0624,-0.202221 0,-0.264583 -0.0624,-0.06236 -0.20222,0.06236 -0.26458,0 -0.0624,-0.06236 0.0624,-0.202221 0,-0.264583 -0.0624,-0.06236 -0.17639,0 -0.26459,0 -0.0882,0 -0.17638,0 -0.26458,0 -0.70555,0 0.0882,0.0882 -0.26458,-0.264584 -0.0637,-0.06367 -0.99467,0.06367 -1.05834,0 -0.0624,-0.06236 0.0624,-0.202221 0,-0.264583 -0.12472,-0.124725 -0.40444,0.124727 -0.52916,0 -0.0624,-0.06236 0.0624,-0.202221 0,-0.264583 -0.12473,-0.124725 -0.40444,0.124727 -0.52917,0 -0.0624,-0.06236 0.0624,-0.202221 0,-0.264584 -0.13229,-0.132291 -0.66146,0.132292 -0.79375,0 -0.0624,-0.06236 0.0624,-0.202221 0,-0.264583 -0.0637,-0.06367 -0.99467,0.06367 -1.05833,0 -0.0624,-0.06236 0.0624,-0.202221 0,-0.264583 -0.12473,-0.124725 -0.40444,0.124727 -0.52917,0 -0.0624,-0.06236 0.0624,-0.202221 0,-0.264584 -0.12472,-0.124724 -0.40444,0.124728 -0.52917,0 -0.0624,-0.06236 0.0624,-0.202221 0,-0.264583 -0.0637,-0.06367 -0.99466,0.06367 -1.05833,0 -0.0624,-0.06236 0.0624,-0.202221 0,-0.264583 -0.0637,-0.06367 -0.99466,0.06367 -1.05833,0 -0.0624,-0.06236 0.0624,-0.202221 0,-0.264584 -0.12473,-0.124724 -0.40444,0.124728 -0.52917,0 -0.0624,-0.06236 0.0624,-0.202221 0,-0.264583 -0.12472,-0.124725 -0.40444,0.124727 -0.52916,0 -0.0624,-0.06236 0.0624,-0.202221 0,-0.264583 -0.0637,-0.06367 -0.99467,0.06367 -1.05834,0 -0.0624,-0.06236 0.0624,-0.202221 0,-0.264584 -0.0624,-0.06236 -0.17639,0 -0.26458,0 -0.0882,0 -0.17639,0 -0.26458,0 -0.0642,0 -0.78525,0.0085 -0.79375,0 -0.0624,-0.06236 0.0624,-0.202221 0,-0.264583 -0.0637,-0.06367 -0.99467,0.06367 -1.05834,0 -0.0624,-0.06236 0.0624,-0.202221 0,-0.264583 -0.12472,-0.124725 -0.40444,0.124727 -0.52916,0 -0.0624,-0.06236 0.0624,-0.202221 0,-0.264584 -0.1323,-0.132291 -0.66146,0.132292 -0.79375,0 -0.0624,-0.06236 0.0624,-0.202221 0,-0.264583 -0.0637,-0.06367 -0.99467,0.06367 -1.05834,0 -0.0624,-0.06236 0.0624,-0.202221 0,-0.264583 -0.13229,-0.132292 -0.66146,0.132291 -0.79375,0 -0.0624,-0.06236 0.0624,-0.202221 0,-0.264584 -0.0819,-0.08193 -1.24099,0.08193 -1.32291,0 -0.0624,-0.06236 0.0624,-0.202221 0,-0.264583 -0.0624,-0.06236 -0.20223,0.06236 -0.26459,0 -0.0624,-0.06236 0.0624,-0.202221 0,-0.264583 -0.0624,-0.06236 -0.17639,0 -0.26458,0 -0.44097,0 -0.88195,0 -1.32292,0 -0.0882,0 -0.20222,0.06236 -0.26458,0 -0.0624,-0.06236 0.0624,-0.202221 0,-0.264584 -0.13229,-0.132291 -0.66146,0.132292 -0.79375,0 -0.0624,-0.06236 0.0624,-0.202221 0,-0.264583 -0.0624,-0.06236 -0.17639,0 -0.26458,0 -0.0882,0 -0.17639,0 -0.26459,0 -0.52916,0 -1.05833,0 -1.5875,0 -0.0882,0 -0.20222,0.06236 -0.26458,0 -0.0624,-0.06236 0.0624,-0.202221 0,-0.264583 -0.12473,-0.124725 -0.40444,0.124727 -0.52917,0 -0.0624,-0.06236 0.0624,-0.202221 0,-0.264584 -0.0624,-0.06236 -0.17639,0 -0.26458,0 -0.0882,0 -0.17639,0 -0.26458,0 -0.18754,0 -1.5191,0.03421 -1.5875,0 -0.6539,-0.326945 0.0913,-0.264583 -0.52917,-0.264583 -0.44097,0 -0.88194,0 -1.32292,0 -0.0882,0 -0.17639,0 -0.26458,0 -0.0882,0 -0.1857,0.03944 -0.26458,0 -0.11156,-0.05578 -0.15303,-0.208804 -0.26459,-0.264583 -0.0805,-0.04026 -0.67459,0 -0.79375,0 -0.52916,0 -1.05833,0 -1.5875,0 -0.0642,0 -0.78524,0.0085 -0.79375,0 -0.0624,-0.06236 0.0624,-0.202221 0,-0.264584 -0.0624,-0.06236 -0.17639,0 -0.26458,0 -0.52917,0 -1.05833,0 -1.5875,0 -0.0882,0 -0.20222,0.06236 -0.26458,0 -0.0624,-0.06236 0.0624,-0.202221 0,-0.264583 -0.0624,-0.06236 -0.17639,0 -0.26459,0 -0.0882,0 -0.17639,0 -0.26458,0 -1.05833,0 -2.11667,0 -3.175,0 -2.91042,0 -5.820835,0 -8.731251,0 -1.322917,0 -2.645833,0 -3.96875,0 -0.08819,0 -0.17639,0 -0.264583,0 -0.08819,0 -0.202222,-0.06236 -0.264584,0 -0.06236,0.06236 0.06236,0.202221 0,0.264583 -0.06236,0.06236 -0.17639,0 -0.264583,0 -0.08819,0 -0.17639,0 -0.264583,0 -0.705557,0 -1.411111,0 -2.116667,0 -0.08819,0 -0.17639,0 -0.264583,0 -0.08819,0 -0.202221,-0.06236 -0.264584,0 -0.06236,0.06236 0.06236,0.202222 0,0.264584 -0.0085,0.0085 -0.72958,0 -0.79375,0 -0.79375,0 -1.5875,0 -2.38125,0 -0.08819,0 -0.176389,0 -0.264583,0 -0.08819,0 -0.202221,-0.06236 -0.264583,0 -0.06236,0.06236 0.06236,0.202221 0,0.264583 -0.06236,0.06236 -0.17639,0 -0.264584,0 -0.440973,0 -0.881943,0 -1.322916,0 -0.124751,0 -1.310926,-0.01199 -1.322917,0 -0.06236,0.06236 0.06236,0.202221 0,0.264583 -0.08193,0.08193 -1.240988,-0.08193 -1.322917,0 -0.06236,0.06236 0.06236,0.202221 0,0.264584 -0.06236,0.06236 -0.176389,0 -0.264583,0 -0.124751,0 -1.310926,-0.01199 -1.322917,0 -0.06236,0.06236 0.06236,0.202221 0,0.264583 -0.06236,0.06236 -0.176389,0 -0.264583,0 -0.08819,0 -0.17639,0 -0.264583,0 -0.187537,0 -1.519092,-0.0342 -1.5875,0 -0.111559,0.05578 -0.153025,0.208804 -0.264584,0.264583 -0.08052,0.04026 -0.674592,0 -0.79375,0 -0.06417,0 -0.785241,-0.0085 -0.79375,0 -0.06236,0.06236 0.06236,0.202221 0,0.264584 -0.124724,0.124727 -0.404442,-0.124725 -0.529166,0 -0.06236,0.06236 0.06236,0.202221 0,0.264583 -0.01199,0.01199 -1.198166,0 -1.322917,0 -0.08819,0 -0.202221,-0.06236 -0.264583,0 -0.06236,0.06236 0.06236,0.202221 0,0.264583 -0.132292,0.132292 -0.661459,-0.132291 -0.79375,0 -0.06236,0.06236 0.06236,0.202221 0,0.264584 -0.08193,0.08193 -1.240989,-0.08193 -1.322917,0 -0.06236,0.06236 0.06236,0.202221 0,0.264583 -0.06367,0.06367 -0.994667,-0.06367 -1.058333,0 -0.06236,0.06236 0.06236,0.202221 0,0.264583 -0.132292,0.132292 -0.661459,-0.132291 -0.79375,0 -0.06236,0.06236 0.06236,0.202221 0,0.264584 -0.05409,0.05409 -0.688846,-0.05245 -0.79375,0 -0.111559,0.05578 -0.153025,0.208804 -0.264584,0.264583 -0.143533,0.07177 -0.985938,-0.0724 -1.058333,0 -0.06236,0.06236 0.06236,0.202221 0,0.264583 -0.124724,0.124728 -0.404442,-0.124724 -0.529166,0 -0.06236,0.06236 0.06236,0.202221 0,0.264584 -0.124725,0.124727 -0.371401,-0.07888 -0.529167,0 -0.111559,0.05578 -0.153025,0.208804 -0.264583,0.264583 -0.157766,0.07888 -0.371401,-0.07888 -0.529167,0 -0.111559,0.05578 -0.153025,0.208804 -0.264583,0.264583 -0.157766,0.07888 -0.404443,-0.124724 -0.529167,0 -0.06236,0.06236 0.06236,0.202221 0,0.264584 -0.06367,0.06367 -0.994667,-0.06367 -1.058333,0 -0.06236,0.06236 0.06236,0.202221 0,0.264583 -0.124725,0.124727 -0.404443,-0.124725 -0.529167,0 -0.06236,0.06236 0.06236,0.202221 0,0.264583 -0.124725,0.124728 -0.404442,-0.124724 -0.529167,0 -0.06236,0.06236 0.06236,0.202221 0,0.264584 -0.132291,0.132291 -0.661458,-0.132292 -0.79375,0 -0.06236,0.06236 0.06236,0.202221 0,0.264583 -0.05409,0.05409 -0.688845,-0.05245 -0.79375,0 -0.111559,0.05578 -0.153024,0.208804 -0.264583,0.264583 -0.07888,0.03944 -0.202221,-0.06236 -0.264583,0 -0.06236,0.06236 0.06236,0.202221 0,0.264584 -0.132292,0.132291 -0.661459,-0.132292 -0.79375,0 -0.06236,0.06236 0.06236,0.202221 0,0.264583 -0.124725,0.124727 -0.404442,-0.124725 -0.529167,0 -0.06236,0.06236 0.06236,0.202221 0,0.264583 -0.132292,0.132292 -0.661458,-0.132291 -0.79375,0 -0.06236,0.06236 0.06236,0.202221 0,0.264584 -0.06236,0.06236 -0.202221,-0.06236 -0.264583,0 -0.06236,0.06236 0.06236,0.202221 0,0.264583 -0.124725,0.124727 -0.404442,-0.124725 -0.529167,0 -0.06236,0.06236 0.06236,0.202221 0,0.264583 -0.124725,0.124728 -0.404442,-0.124724 -0.529167,0 -0.06236,0.06236 0.06236,0.202221 0,0.264584 -0.124724,0.124727 -0.404442,-0.124725 -0.529166,0 -0.06236,0.06236 0.06236,0.202221 0,0.264583 -0.06236,0.06236 -0.202221,-0.06236 -0.264584,0 -0.06236,0.06236 0.06236,0.202221 0,0.264583 -0.124724,0.124728 -0.404442,-0.124724 -0.529166,0 -0.06236,0.06236 0.06236,0.202221 0,0.264584 -0.124725,0.124727 -0.404442,-0.124725 -0.529167,0 -0.06236,0.06236 0.06236,0.202221 0,0.264583 -0.06236,0.06236 -0.202221,-0.06236 -0.264583,0 -0.06236,0.06236 0.06236,0.202221 0,0.264583 -0.124725,0.124728 -0.404442,-0.124724 -0.529167,0 -0.06236,0.06236 0,0.17639 0,0.264584 -0.08819,0 -0.202221,-0.06236 -0.264583,0 -0.06236,0.06236 0.06236,0.202221 0,0.264583 -0.132292,0.132292 -0.661459,-0.132292 -0.79375,0 -0.06236,0.06236 0.06236,0.202221 0,0.264583 -0.06236,0.06236 -0.185701,-0.03944 -0.264584,0 -0.3175,0.15875 -0.47625,0.635 -0.79375,0.79375 -0.157765,0.07888 -0.404442,-0.124724 -0.529166,0 -0.06236,0.06236 0.06236,0.202221 0,0.264584 -0.06236,0.06236 -0.202221,-0.06236 -0.264584,0 -0.06236,0.06236 0.06236,0.202221 0,0.264583 -0.124724,0.124727 -0.404442,-0.124725 -0.529166,0 -0.06236,0.06236 0.06236,0.202221 0,0.264583 -0.06236,0.06236 -0.202221,-0.06236 -0.264584,0 -0.06236,0.06236 0.06236,0.202221 0,0.264584 -0.06236,0.06236 -0.202221,-0.06236 -0.264583,0 -0.06236,0.06236 0.06236,0.202221 0,0.264583 -0.124725,0.124727 -0.404442,-0.124725 -0.529167,0 -0.06236,0.06236 0.06236,0.202221 0,0.264583 -0.06236,0.06236 -0.202221,-0.06236 -0.264583,0 -0.06236,0.06236 0.06236,0.202221 0,0.264584 -0.06236,0.06236 -0.202221,-0.06236 -0.264583,0 -0.06236,0.06236 0.06236,0.202221 0,0.264583 -0.06236,0.06236 -0.202221,-0.06236 -0.264584,0 -0.06236,0.06236 0.06236,0.202221 0,0.264583 -0.547433,0.547434 0.02141,-0.836549 -0.529166,0.264584 -0.07888,0.157768 0.124724,0.404442 0,0.529166 -0.06236,0.06236 -0.202221,-0.06236 -0.264584,0 -0.06236,0.06236 0.06236,0.202221 0,0.264584 -0.124724,0.124727 -0.404442,-0.124725 -0.529166,0 -0.06236,0.06236 0.06236,0.202221 0,0.264583 -0.06236,0.06236 -0.202221,-0.06236 -0.264584,0 -0.124724,0.124727 0.124725,0.404442 0,0.529167 -0.06236,0.06236 -0.202221,-0.06236 -0.264583,0 -0.06236,0.06236 0.06236,0.202221 0,0.264583 -0.06236,0.06236 -0.202221,-0.06236 -0.264583,0 -0.06236,0.06236 0.03944,0.1857 0,0.264583 -0.05578,0.111559 -0.208804,0.153025 -0.264584,0.264584 -0.07888,0.157768 0.124725,0.404442 0,0.529166 -0.06236,0.06236 -0.202221,-0.06236 -0.264583,0 -0.124724,0.124727 0.124725,0.404442 0,0.529167 -0.06236,0.06236 -0.202221,-0.06236 -0.264583,0 -0.124725,0.124727 0.124724,0.404442 0,0.529167 -0.06236,0.06236 -0.17639,0 -0.264584,0 0,0.352779 0,0.705556 0,1.058333 z"
       id="path5320"
       inkscape:connector-curvature="0" />
  </g>
  <g
     inkscape:groupmode="layer"
     id="layer2"
     inkscape:label="Circle"
     style="display:none">
    <circle
       id="path3776"
       style="fill:none;fill-opacity:1;stroke:#000000;stroke-width:0.30957243;stroke-opacity:1"
       cy="100.0005"
       cx="99.999504"
       inkscape:export-xdpi="65.040001"
       inkscape:export-ydpi="65.040001"
       r="99.999504" />
  </g>
  <g
     inkscape:label="Hat"
     inkscape:groupmode="layer"
     id="layer1"
     transform="translate(-12.586762,24.507582)"
     style="display:inline">
    <g
       id="g3771"
       transform="matrix(0.26458333,0,0,0.26458333,31.797036,-5.2974404)"
       style="fill:#2c2f33;fill-opacity:1"
       inkscape:export-xdpi="65.139999"
       inkscape:export-ydpi="65.139999"
       inkscape:export-filename="C:\Users\Snaptraks\Desktop\HatBotLogo.png">
      <g
         id="g3715"
         style="fill:#2c2f33;fill-opacity:1">
        <path
           id="path3713"
           d="m 584.596,403.113 c -13.114,-7.193 -30.056,-11.142 -51.503,-16.139 -11.22,-2.614 -23.61,-5.509 -36.988,-9.239 3.916,-91.125 15.977,-169.155 38.897,-255.954 1.808,-6.845 -0.685,-14.108 -6.317,-18.4 C 466.483,55.987 387.169,29.884 305.35,29.884 c -81.819,0 -161.138,26.102 -223.338,73.496 -5.632,4.29 -8.127,11.553 -6.317,18.4 22.925,86.799 34.983,164.828 38.901,255.954 -13.379,3.732 -25.768,6.626 -36.988,9.239 -21.449,4.997 -38.389,8.944 -51.505,16.139 C 8.782,412.613 0,427.289 0,446.738 c 0,38.744 33.825,73.78 95.244,98.652 56.404,22.841 131.02,35.421 210.103,35.421 79.083,0 153.699,-12.58 210.103,-35.421 61.419,-24.873 95.244,-59.908 95.244,-98.652 0.002,-19.449 -8.779,-34.125 -26.098,-43.625 z M 305.349,64.908 c 70.15,0 138.134,21.055 192.787,59.506 -20.906,81.99 -32.534,159.265 -36.71,246.275 -44.993,13.589 -98.6,21.493 -156.183,21.493 -57.494,0 -111.024,-7.88 -155.969,-21.429 C 145.102,283.715 133.47,206.42 112.559,124.412 167.209,85.967 235.201,64.908 305.349,64.908 Z m 0,480.881 c -159.307,0 -270.327,-52.201 -270.327,-99.051 0,-11.934 7.083,-15.53 50.529,-25.654 9.279,-2.163 19.328,-4.507 30.161,-7.361 0.225,11.522 0.339,23.275 0.339,35.307 0,7.723 5.059,14.534 12.453,16.765 51.551,15.552 112.701,23.772 176.842,23.772 64.14,0 125.289,-8.219 176.84,-23.772 7.394,-2.23 12.453,-9.042 12.453,-16.765 0,-12.032 0.114,-23.785 0.339,-35.307 10.831,2.854 20.882,5.199 30.161,7.361 43.446,10.124 50.529,13.72 50.529,25.654 0.006,46.849 -111.014,99.051 -270.319,99.051 z"
           inkscape:connector-curvature="0"
           style="fill:#2c2f33;fill-opacity:1" />
      </g>
      <g
         id="g3717"
         style="fill:#2c2f33;fill-opacity:1" />
      <g
         id="g3719"
         style="fill:#2c2f33;fill-opacity:1" />
      <g
         id="g3721"
         style="fill:#2c2f33;fill-opacity:1" />
      <g
         id="g3723"
         style="fill:#2c2f33;fill-opacity:1" />
      <g
         id="g3725"
         style="fill:#2c2f33;fill-opacity:1" />
      <g
         id="g3727"
         style="fill:#2c2f33;fill-opacity:1" />
      <g
         id="g3729"
         style="fill:#2c2f33;fill-opacity:1" />
      <g
         id="g3731"
         style="fill:#2c2f33;fill-opacity:1" />
      <g
         id="g3733"
         style="fill:#2c2f33;fill-opacity:1" />
      <g
         id="g3735"
         style="fill:#2c2f33;fill-opacity:1" />
      <g
         id="g3737"
         style="fill:#2c2f33;fill-opacity:1" />
      <g
         id="g3739"
         style="fill:#2c2f33;fill-opacity:1" />
      <g
         id="g3741"
         style="fill:#2c2f33;fill-opacity:1" />
      <g
         id="g3743"
         style="fill:#2c2f33;fill-opacity:1" />
      <g
         id="g3745"
         style="fill:#2c2f33;fill-opacity:1" />
    </g>
  </g>
  <g
     inkscape:groupmode="layer"
     id="layer4"
     inkscape:label="HB">
    <flowRoot
       xml:space="preserve"
       id="flowRoot4609"
       style="fill:black;fill-opacity:1;stroke:none;font-family:'Bauhaus 93';font-style:normal;font-weight:normal;font-size:74.66666667px;line-height:1.25;letter-spacing:0px;word-spacing:0px;-inkscape-font-specification:'Bauhaus 93, ';font-stretch:normal;font-variant:normal;"><flowRegion
         id="flowRegion4611"
         style="font-size:74.66666667px;"><rect
           id="rect4613"
           width="216.37468"
           height="149.90663"
           x="277.18585"
           y="251.03128"
           style="font-size:74.66666667px;" /></flowRegion><flowPara
         id="flowPara4615" /></flowRoot>    <text
       xml:space="preserve"
       style="font-style:normal;font-variant:normal;font-weight:normal;font-stretch:normal;font-size:158.49597168px;line-height:1.25;font-family:'Bauhaus 93';-inkscape-font-specification:'Bauhaus 93, ';letter-spacing:0px;word-spacing:0px;fill:#23272a;fill-opacity:1;stroke:none;stroke-width:3.96239901"
       x="78.017372"
       y="86.377823"
       id="text4619"
       transform="scale(0.78073583,1.280843)"><tspan
         sodipodi:role="line"
         id="tspan4617"
         x="78.017372"
         y="86.377823"
         style="font-style:normal;font-variant:normal;font-weight:normal;font-stretch:normal;font-size:70.86183167px;font-family:Bungee;-inkscape-font-specification:Bungee;fill:#23272a;fill-opacity:1;stroke-width:3.96239901">HB</tspan></text>
    <flowRoot
       xml:space="preserve"
       id="flowRoot4621"
       style="fill:black;fill-opacity:1;stroke:none;font-family:'Bauhaus 93';font-style:normal;font-weight:normal;font-size:40px;line-height:1.25;letter-spacing:0px;word-spacing:0px;-inkscape-font-specification:'Bauhaus 93, ';font-stretch:normal;font-variant:normal"><flowRegion
         id="flowRegion4623"><rect
           id="rect4625"
           width="46.669048"
           height="66.46804"
           x="321.02649"
           y="290.62927" /></flowRegion><flowPara
         id="flowPara4627" /></flowRoot>  </g>
</svg>
